# xmcd CD database file
#
# Track frame offsets:
#	150
#	12547
#	28139
#	44833
#	61077
#	76230
#	91937
#	111500
#	131129
#	147359
#	156655
#
# Disc length: 2275 seconds
#
# Revision: 2
# Processed by: cddbd v1.5.2PL0 Copyright (c) Steve Scherf et al.
# Submitted via: CDex 1.51
#
DISCID=a008e10b
DTITLE=Rita and Helge - Frem fra Glemselen - Jubileum - 2
DYEAR=1999
DGENRE=Schillingsviser
TTITLE0=Helge Borglund og Rita Engebretsen - Oleana
TTITLE1=Rita Engebretsen - De Tusen Sjøers Land
TTITLE2=Helge Borglund - Cowboyens Avskjed
TTITLE3=Helge Borglund - Vesle Daniel
TTITLE4=Helge Borglund - Sonja
TTITLE5=Rita Engebretsen - Emigrantvalsen
TTITLE6=Rita Engebretsen og Helge Borglund - Truls
TTITLE7=Helge Borglund - Kjære Lille Torild
TTITLE8=Rita Engebretsen - Vildandens Sang
TTITLE9=Helge Borglund - En Sjømanns Brud
TTITLE10=Rita Engebretsen - Amanda and Herman
EXTD=Frem Fra Glemselen Disc 2 YEAR: 1999
EXTT0=
EXTT1=
EXTT2=
EXTT3=
EXTT4=
EXTT5=
EXTT6=
EXTT7=
EXTT8=
EXTT9=
EXTT10=
PLAYORDER=
